<svg width="16" height="16" viewBox="0 0 16 16" fill="none" xmlns="http://www.w3.org/2000/svg">
    <path fill-rule="evenodd" clip-rule="evenodd"
        d="M9.41 8L12.7 4.71C12.89 4.53 13 4.28 13 4C13 3.45 12.55 3 12 3C11.72 3 11.47 3.11 11.29 3.29L8 6.59L4.71 3.29C4.53 3.11 4.28 3 4 3C3.45 3 3 3.45 3 4C3 4.28 3.11 4.53 3.29 4.71L6.59 8L3.3 11.29C3.11 11.47 3 11.72 3 12C3 12.55 3.45 13 4 13C4.28 13 4.53 12.89 4.71 12.71L8 9.41L11.29 12.7C11.47 12.89 11.72 13 12 13C12.55 13 13 12.55 13 12C13 11.72 12.89 11.47 12.71 11.29L9.41 8Z"
        fill="white" />
</svg>
