<svg width="24" height="24" fill="none" xmlns="http://www.w3.org/2000/svg">
    <g clip-path="url(#a)">
        <path
            d="M14.25 19.5V15a.75.75 0 0 0-.75-.75h-3a.75.75 0 0 0-.75.75v4.5a.75.75 0 0 1-.75.75H4.5a.75.75 0 0 1-.75-.75v-8.668a.75.75 0 0 1 .246-.555l7.5-7.082a.75.75 0 0 1 1.01 0l7.5 7.082a.75.75 0 0 1 .245.555V19.5a.75.75 0 0 1-.75.75H15a.75.75 0 0 1-.75-.75Z"
            stroke="currentColor" stroke-width="1.7" stroke-linecap="round" stroke-linejoin="round" />
    </g>
    <defs>
        <clipPath id="a">
            <path fill="#fff" d="M0 0h24v24H0z" />
        </clipPath>
    </defs>
</svg>
