<svg width="40" height="40" viewBox="0 0 40 40" fill="none" xmlns="http://www.w3.org/2000/svg">
    <rect width="40" height="40" rx="12" fill="#3685D4" />
    <path
        d="M16.8766 31.2912C17.65 30.8484 18.313 30.2001 18.7944 29.37L20.1519 27.0061C20.7754 25.923 21.9356 25.251 23.1826 25.251H25.9054C27.7759 25.251 29.5201 24.2469 30.4514 22.6183C30.9092 21.8356 31.1538 20.9264 31.1538 20.0014C31.1538 18.0565 30.0963 16.3567 28.5178 15.4475C27.7443 15.0047 26.8525 14.7438 25.9054 14.7438H23.1826C21.9356 14.7438 20.7754 14.0797 20.1519 12.9887L18.7865 10.6248C17.8552 9.00407 16.111 8 14.2405 8C13.325 8 12.4174 8.24509 11.6203 8.70364C9.93919 9.67608 9 11.447 9 13.2654C9 14.1588 9.22888 15.0601 9.70242 15.8823L11.0599 18.2462C11.6834 19.3293 11.6834 20.6655 11.0599 21.7486L9.70242 24.1125C8.77112 25.7332 8.77112 27.7493 9.70242 29.37C10.1602 30.1685 10.8231 30.8326 11.6203 31.2912C13.3013 32.2715 15.306 32.2004 16.8766 31.2912ZM12.8041 29.2435C12.37 28.9905 11.9991 28.6268 11.7544 28.192C11.2414 27.2986 11.2414 26.1918 11.7544 25.3063L15.9768 17.9616C16.7029 16.7045 16.7029 15.1471 15.9768 13.89L15.2507 12.625C14.9272 12.0558 14.2011 11.866 13.6328 12.1902C13.0646 12.5143 12.8751 13.2417 13.1987 13.8109L13.9248 15.0759C14.2247 15.5977 14.2247 16.246 13.9248 16.7757C13.7038 17.1552 13.1593 17.1552 12.9462 16.7757L11.7465 14.6964C10.9494 13.3208 11.423 11.5498 12.8041 10.7513C13.2382 10.4983 13.7354 10.3639 14.2405 10.3639C15.2665 10.3639 16.2215 10.9173 16.7424 11.8107L20.9727 19.1475C21.6988 20.4046 23.0484 21.1794 24.4927 21.1794H25.9133C26.5526 21.1794 27.0972 20.6892 27.1287 20.0488C27.1603 19.3689 26.6157 18.8075 25.9449 18.8075H24.4927C23.885 18.8075 23.3246 18.4834 23.0247 17.9616C22.8037 17.5821 23.08 17.1077 23.514 17.1077H25.9054C27.4918 17.1077 28.7861 18.4043 28.7861 19.9935C28.7861 20.4994 28.652 20.9975 28.3994 21.4323C27.8864 22.3257 26.9314 22.8792 25.9054 22.8792H17.4448C15.9926 22.8792 14.6509 23.6539 13.9248 24.911L13.1987 26.176C12.8751 26.7452 13.0646 27.4647 13.6328 27.7967C14.2011 28.1209 14.9193 27.9311 15.2507 27.3619L15.9768 26.0969C16.2768 25.5751 16.8371 25.251 17.4448 25.251C17.8789 25.251 18.1551 25.7253 17.9341 26.1048L16.7345 28.1841C15.9453 29.5677 14.1774 30.042 12.8041 29.2435Z"
        fill="white" />
</svg>
